name rise30.9205peak61.366fall85.3838.mot
datacolumns 19
datarows 35
range 2.47665500000000 2.53332700000000
endheader
time	ground_force1_vx	ground_force1_vy	ground_force1_vz	ground_force1_px	ground_force1_py	ground_force1_pz	ground_force2_vx	ground_force2_vy	ground_force2_vz	ground_force2_px	ground_force2_py	ground_force2_pz	ground_torque1_x	ground_torque1_y	ground_torque1_z	ground_torque2_x	ground_torque2_y	ground_torque2_z	
2.47665500000000	-36.95650900000000	814.48230699999999	61.87355300000000	0.13688200000000	0.00000000000000	0.12265900000000	-16.83295500000000	75.66931900000000	14.93881500000000	0.40390000000000	0.00000000000000	-0.05330600000000	0.00000000000000	24.11149300000000	0.00000000000000	0.00000000000000	10.45996200000000	0.00000000000000	
2.47832400000000	-37.24516000000000	810.72489900000005	61.53196200000000	0.13626700000000	0.00000000000000	0.12262700000000	-16.82327300000000	78.53009800000000	14.91255300000000	0.40503100000000	0.00000000000000	-0.05376100000000	0.00000000000000	23.95623800000000	0.00000000000000	0.00000000000000	10.45153100000000	0.00000000000000	
2.47999500000000	-37.54888700000000	806.87610400000005	61.16591100000000	0.13565900000000	0.00000000000000	0.12259100000000	-16.74293400000000	81.34959600000001	14.82789500000000	0.40614100000000	0.00000000000000	-0.05421100000000	0.00000000000000	23.80209300000000	0.00000000000000	0.00000000000000	10.40356700000000	0.00000000000000	
2.48166200000000	-37.86824200000000	802.93859399999997	60.77576900000000	0.13505800000000	0.00000000000000	0.12255000000000	-16.60721500000000	84.17866300000000	14.69915800000000	0.40722600000000	0.00000000000000	-0.05465700000000	0.00000000000000	23.64930100000000	0.00000000000000	0.00000000000000	10.32609800000000	0.00000000000000	
2.48332400000000	-38.20373300000000	798.91498500000000	60.36194800000000	0.13446400000000	0.00000000000000	0.12250400000000	-16.42873500000000	87.06019700000000	14.53811100000000	0.40828000000000	0.00000000000000	-0.05509900000000	0.00000000000000	23.49809200000000	0.00000000000000	0.00000000000000	10.22736000000000	0.00000000000000	
2.48499000000000	-38.55582600000000	794.80782999999997	59.92489600000000	0.13387400000000	0.00000000000000	0.12245200000000	-16.21705700000000	90.02772700000000	14.35362300000000	0.40929900000000	0.00000000000000	-0.05553800000000	0.00000000000000	23.34868600000000	0.00000000000000	0.00000000000000	10.11354700000000	0.00000000000000	
2.48665600000000	-38.92494000000000	790.61960999999997	59.46509900000000	0.13328900000000	0.00000000000000	0.12239600000000	-15.97858800000000	93.10493700000001	14.15159400000000	0.41027800000000	0.00000000000000	-0.05597600000000	0.00000000000000	23.20129300000000	0.00000000000000	0.00000000000000	9.98875800000000	0.00000000000000	
2.48832700000000	-39.31143800000000	786.35271699999998	58.98307400000000	0.13270600000000	0.00000000000000	0.12233500000000	-15.71673300000000	96.30598500000001	13.93511600000000	0.41121300000000	0.00000000000000	-0.05641200000000	0.00000000000000	23.05610600000000	0.00000000000000	0.00000000000000	9.85510400000000	0.00000000000000	
2.48999600000000	-39.71563300000000	782.00945000000002	58.47937300000000	0.13212600000000	0.00000000000000	0.12226900000000	-15.43224500000000	99.63645400000000	13.70481200000000	0.41209900000000	0.00000000000000	-0.05684700000000	0.00000000000000	22.91331000000000	0.00000000000000	0.00000000000000	9.71295200000000	0.00000000000000	
2.49166100000000	-40.13777600000000	777.59199999999998	57.95457500000000	0.13154600000000	0.00000000000000	0.12219700000000	-15.12370400000000	103.09473500000000	13.45929500000000	0.41293300000000	0.00000000000000	-0.05728100000000	0.00000000000000	22.77307000000000	0.00000000000000	0.00000000000000	9.56124800000000	0.00000000000000	
2.49333400000000	-40.57805600000000	773.10244599999999	57.40928800000000	0.13096600000000	0.00000000000000	0.12212100000000	-14.78807500000000	106.67368200000000	13.19569000000000	0.41371100000000	0.00000000000000	-0.05771500000000	0.00000000000000	22.63554300000000	0.00000000000000	0.00000000000000	9.39788900000000	0.00000000000000	
2.49499400000000	-41.03659700000000	768.54274299999997	56.84414500000000	0.13038500000000	0.00000000000000	0.12203900000000	-14.42128100000000	110.36233199999999	12.91017100000000	0.41443000000000	0.00000000000000	-0.05814800000000	0.00000000000000	22.50086700000000	0.00000000000000	0.00000000000000	9.22010400000000	0.00000000000000	
2.49665600000000	-41.51345300000000	763.91471200000001	56.25980300000000	0.12980100000000	0.00000000000000	0.12195300000000	-14.01874400000000	114.14758800000000	12.59846800000000	0.41508700000000	0.00000000000000	-0.05858200000000	0.00000000000000	22.36916700000000	0.00000000000000	0.00000000000000	9.02482500000000	0.00000000000000	
2.49832200000000	-42.00860600000000	759.22003800000005	55.65693700000000	0.12921300000000	0.00000000000000	0.12186200000000	-13.57587300000000	118.01571199999999	12.25631300000000	0.41567900000000	0.00000000000000	-0.05901500000000	0.00000000000000	22.24055100000000	0.00000000000000	0.00000000000000	8.80900100000000	0.00000000000000	
2.49998900000000	-42.52196300000000	754.46025799999995	55.03624400000000	0.12862000000000	0.00000000000000	0.12176600000000	-13.08845500000000	121.95357700000000	11.87980400000000	0.41620500000000	0.00000000000000	-0.05944900000000	0.00000000000000	22.11511300000000	0.00000000000000	0.00000000000000	8.56986400000000	0.00000000000000	
2.50165900000000	-43.05335000000000	749.63675899999998	54.39843400000000	0.12802100000000	0.00000000000000	0.12166500000000	-12.55295300000000	125.94962800000000	11.46567600000000	0.41666100000000	0.00000000000000	-0.05988200000000	0.00000000000000	21.99292800000000	0.00000000000000	0.00000000000000	8.30512600000000	0.00000000000000	
2.50332900000000	-43.60251500000000	744.75076999999999	53.74423300000000	0.12741300000000	0.00000000000000	0.12155900000000	-11.96670200000000	129.99452600000001	11.01148100000000	0.41704800000000	0.00000000000000	-0.06031500000000	0.00000000000000	21.87405800000000	0.00000000000000	0.00000000000000	8.01310400000000	0.00000000000000	
2.50499800000000	-44.16911900000000	739.80335900000000	53.07437800000000	0.12679700000000	0.00000000000000	0.12144900000000	-11.32800500000000	134.08150400000000	10.51567200000000	0.41736200000000	0.00000000000000	-0.06074800000000	0.00000000000000	21.75854600000000	0.00000000000000	0.00000000000000	7.69278400000000	0.00000000000000	
2.50665400000000	-44.75273800000000	734.79543000000001	52.38961600000000	0.12617000000000	0.00000000000000	0.12133400000000	-10.63614900000000	138.20645700000000	9.97761000000000	0.41760400000000	0.00000000000000	-0.06117900000000	0.00000000000000	21.64641700000000	0.00000000000000	0.00000000000000	7.34382800000000	0.00000000000000	
2.50832700000000	-45.35286000000000	729.72771599999999	51.69070200000000	0.12553200000000	0.00000000000000	0.12121500000000	-9.89134600000000	142.36781500000001	9.39751600000000	0.41777300000000	0.00000000000000	-0.06161000000000	0.00000000000000	21.53768100000000	0.00000000000000	0.00000000000000	6.96652800000000	0.00000000000000	
2.50999600000000	-45.96888100000000	724.60078499999997	50.97839300000000	0.12488100000000	0.00000000000000	0.12109200000000	-9.09462900000000	146.56624600000001	8.77636200000000	0.41786900000000	0.00000000000000	-0.06203900000000	0.00000000000000	21.43232900000000	0.00000000000000	0.00000000000000	6.56173900000000	0.00000000000000	
2.51165600000000	-46.60010600000000	719.41503100000000	50.25345400000000	0.12421700000000	0.00000000000000	0.12096400000000	-8.24770600000000	150.80425299999999	8.11574600000000	0.41789300000000	0.00000000000000	-0.06246700000000	0.00000000000000	21.33033500000000	0.00000000000000	0.00000000000000	6.13077500000000	0.00000000000000	
2.51332100000000	-47.24574600000000	714.17067899999995	49.51664800000000	0.12353700000000	0.00000000000000	0.12083300000000	-7.35280900000000	155.08571100000000	7.41774000000000	0.41784400000000	0.00000000000000	-0.06289200000000	0.00000000000000	21.23165300000000	0.00000000000000	0.00000000000000	5.67530200000000	0.00000000000000	
2.51499600000000	-47.90492000000000	708.86778200000003	48.76873900000000	0.12284200000000	0.00000000000000	0.12069800000000	-6.41252900000000	159.41539100000000	6.68474600000000	0.41772400000000	0.00000000000000	-0.06331500000000	0.00000000000000	21.13622100000000	0.00000000000000	0.00000000000000	5.19723300000000	0.00000000000000	
2.51666300000000	-48.57665000000000	703.50622699999997	48.01049000000000	0.12213000000000	0.00000000000000	0.12055900000000	-5.42967200000000	163.79851400000001	5.91936100000000	0.41753400000000	0.00000000000000	-0.06373500000000	0.00000000000000	21.04395800000000	0.00000000000000	0.00000000000000	4.69862200000000	0.00000000000000	
2.51832100000000	-49.25986400000000	698.08573300000000	47.24265700000000	0.12140000000000	0.00000000000000	0.12041600000000	-4.40712400000000	168.24034800000001	5.12425400000000	0.41727700000000	0.00000000000000	-0.06415000000000	0.00000000000000	20.95476500000000	0.00000000000000	0.00000000000000	4.18157800000000	0.00000000000000	
2.51999600000000	-49.95339500000000	692.60585900000001	46.46599500000000	0.12065200000000	0.00000000000000	0.12027000000000	-3.34775200000000	172.74589700000001	4.30207400000000	0.41695300000000	0.00000000000000	-0.06456200000000	0.00000000000000	20.86852400000000	0.00000000000000	0.00000000000000	3.64819600000000	0.00000000000000	
2.52165900000000	-50.65598300000000	687.06600500000002	45.68124800000000	0.11988400000000	0.00000000000000	0.12012100000000	-2.25432200000000	177.31964800000000	3.45537700000000	0.41656600000000	0.00000000000000	-0.06496900000000	0.00000000000000	20.78509800000000	0.00000000000000	0.00000000000000	3.10049800000000	0.00000000000000	
2.52332100000000	-51.36627300000000	681.46541999999999	44.88915600000000	0.11909700000000	0.00000000000000	0.11996900000000	-1.12944900000000	181.96542400000001	2.58658400000000	0.41611700000000	0.00000000000000	-0.06537000000000	0.00000000000000	20.70433300000000	0.00000000000000	0.00000000000000	2.54040600000000	0.00000000000000	
2.52498900000000	-52.08282100000000	675.80321100000003	44.09044600000000	0.11829000000000	0.00000000000000	0.11981400000000	0.02442400000000	186.68629999999999	1.69795700000000	0.41561000000000	0.00000000000000	-0.06576600000000	0.00000000000000	20.62605500000000	0.00000000000000	0.00000000000000	1.96971800000000	0.00000000000000	
2.52665600000000	-52.80409300000000	670.07834800000001	43.28583900000000	0.11746200000000	0.00000000000000	0.11965600000000	1.20503700000000	191.48459399999999	0.79159500000000	0.41504700000000	0.00000000000000	-0.06615500000000	0.00000000000000	20.55007200000000	0.00000000000000	0.00000000000000	1.39010600000000	0.00000000000000	
2.52832700000000	-53.52846900000000	664.28967599999999	42.47604100000000	0.11661400000000	0.00000000000000	0.11949500000000	2.41029400000000	196.36190700000000	-0.13055100000000	0.41443300000000	0.00000000000000	-0.06653800000000	0.00000000000000	20.47617600000000	0.00000000000000	0.00000000000000	0.80312600000000	0.00000000000000	
2.52999200000000	-54.25424300000000	658.43592500000000	41.66174900000000	0.11574400000000	0.00000000000000	0.11933300000000	3.63823900000000	201.31920900000000	-1.06665400000000	0.41377000000000	0.00000000000000	-0.06691300000000	0.00000000000000	20.40413800000000	0.00000000000000	0.00000000000000	0.21022900000000	0.00000000000000	
2.53165500000000	-54.97963100000000	652.51572699999997	40.84364600000000	0.11485400000000	0.00000000000000	0.11916700000000	4.88702400000000	206.35694300000000	-2.01498600000000	0.41306100000000	0.00000000000000	-0.06727900000000	0.00000000000000	20.33371400000000	0.00000000000000	0.00000000000000	-0.38721800000000	0.00000000000000	
2.53332700000000	-55.70277300000000	646.52762299999995	40.02240300000000	0.11394200000000	0.00000000000000	0.11900000000000	6.15487400000000	211.47514699999999	-2.97388000000000	0.41231200000000	0.00000000000000	-0.06763800000000	0.00000000000000	20.26464100000000	0.00000000000000	0.00000000000000	-0.98791000000000	0.00000000000000	
